<svg xmlns="http://www.w3.org/2000/svg" viewBox="0 0 480 360">
  <rect width="480" height="360" fill="#ece5f4"/>
  <circle cx="372" cy="96" r="48" fill="#f2c94c"/>
  <path d="M0 250 Q120 190 260 244 T480 236 V360 H0 Z" fill="#cfc3de"/>
  <path d="M0 290 Q160 240 320 288 T480 280 V360 H0 Z" fill="#b3a3c9"/>
  <rect x="0" y="308" width="480" height="52" fill="#a8bb96"/>
  <rect x="58" y="296" width="364" height="14" rx="7" fill="#6d5f80"/>
  <circle cx="240" cy="148" r="21" fill="#463a55"/>
  <rect x="226" y="170" width="28" height="58" rx="13" fill="#8a7ba3"/>
  <rect x="138" y="180" width="204" height="14" rx="7" fill="#463a55"/>
  <circle cx="136" cy="187" r="8" fill="#463a55"/>
  <circle cx="344" cy="187" r="8" fill="#463a55"/>
  <path d="M240 224 L304 252 L308 292" fill="none" stroke="#463a55" stroke-width="17" stroke-linecap="round" stroke-linejoin="round"/>
  <path d="M240 224 L166 290" fill="none" stroke="#463a55" stroke-width="17" stroke-linecap="round"/>
  <rect x="296" y="288" width="34" height="10" rx="5" fill="#463a55"/>
  <rect x="142" y="288" width="32" height="10" rx="5" fill="#463a55"/>
</svg>
