<svg xmlns="http://www.w3.org/2000/svg" viewBox="0 0 360 480">
  <rect width="360" height="480" fill="#f3eee4"/>
  <circle cx="180" cy="210" r="150" fill="#e2d8ef"/>
  <rect x="0" y="428" width="360" height="14" rx="7" fill="#a8bb96"/>
  <circle cx="180" cy="104" r="22" fill="#463a55"/>
  <path d="M180 168 L146 122 L174 66" fill="none" stroke="#463a55" stroke-width="13" stroke-linecap="round" stroke-linejoin="round"/>
  <path d="M180 168 L214 122 L186 66" fill="none" stroke="#463a55" stroke-width="13" stroke-linecap="round" stroke-linejoin="round"/>
  <rect x="165" y="130" width="30" height="90" rx="15" fill="#8a7ba3"/>
  <path d="M180 215 L180 424" fill="none" stroke="#463a55" stroke-width="18" stroke-linecap="round"/>
  <path d="M180 218 L234 258 L198 292" fill="none" stroke="#463a55" stroke-width="16" stroke-linecap="round" stroke-linejoin="round"/>
  <rect x="168" y="420" width="42" height="11" rx="5" fill="#463a55"/>
  <path d="M292 428 L318 428 L312 372 L298 372 Z" fill="#b06f4e"/>
  <ellipse cx="290" cy="352" rx="18" ry="30" fill="#7d9b6a" transform="rotate(-24 290 352)"/>
  <ellipse cx="320" cy="352" rx="18" ry="30" fill="#7d9b6a" transform="rotate(24 320 352)"/>
  <ellipse cx="305" cy="336" rx="14" ry="32" fill="#93ad7f"/>
  <path d="M42 428 L66 428 L61 386 L47 386 Z" fill="#8a7ba3"/>
  <ellipse cx="54" cy="372" rx="16" ry="24" fill="#7d9b6a"/>
</svg>
